HIERARCHY
ROOT Hips
{
	OFFSET 0.000000 0.000000 0.000000 
	CHANNELS 6 Xposition Yposition Zposition Zrotation Yrotation Xrotation
	JOINT LeftUpLeg
	{
		OFFSET 1.363060 -1.794630 0.839290 
		CHANNELS 3 Zrotation Yrotation Xrotation
		JOINT LeftLeg
		{
			OFFSET 2.448110 -6.726130 0.000000 
			CHANNELS 3 Zrotation Yrotation Xrotation
			JOINT LeftFoot
			{
				OFFSET 2.562200 -7.039590 0.000000 
				CHANNELS 3 Zrotation Yrotation Xrotation
				JOINT LeftToeBase
				{
					OFFSET 0.157640 -0.433110 2.322550 
					CHANNELS 3 Zrotation Yrotation Xrotation
					End Site
					{
						OFFSET 0.000000 0.000000 0.000000 
					}
				}
			}
		}
	}
	JOINT RightUpLeg
	{
		OFFSET -1.305520 -1.794630 0.839290 
		CHANNELS 3 Zrotation Yrotation Xrotation
		JOINT RightLeg
		{
			OFFSET -2.542530 -6.985550 0.000000 
			CHANNELS 3 Zrotation Yrotation Xrotation
			JOINT RightFoot
			{
				OFFSET -2.568260 -7.056230 0.000000 
				CHANNELS 3 Zrotation Yrotation Xrotation
				JOINT RightToeBase
				{
					OFFSET -0.164730 -0.452590 2.363150 
					CHANNELS 3 Zrotation Yrotation Xrotation
					End Site
					{
						OFFSET 0.000000 0.000000 0.000000 
					}
				}
			}
		}
	}
	JOINT Spine
	{
		OFFSET 0.028270 2.035590 -0.193380 
		CHANNELS 3 Zrotation Yrotation Xrotation
		JOINT Spine1
		{
			OFFSET 0.056720 2.048850 -0.042750 
			CHANNELS 3 Zrotation Yrotation Xrotation
			JOINT Neck1
			{
				OFFSET -0.054170 1.746240 0.172020 
				CHANNELS 3 Zrotation Yrotation Xrotation
				JOINT Head
				{
					OFFSET 0.104070 1.761360 -0.123970 
					CHANNELS 3 Zrotation Yrotation Xrotation
					End Site
					{
						OFFSET 0.000000 0.000000 0.000000 
					}
				}
			}
			JOINT LeftArm
			{
				OFFSET 3.362410 1.200890 -0.311210 
				CHANNELS 3 Zrotation Yrotation Xrotation
				JOINT LeftForeArm
				{
					OFFSET 4.983000 -0.000000 -0.000000 
					CHANNELS 3 Zrotation Yrotation Xrotation
					JOINT LeftHand
					{
						OFFSET 3.483560 -0.000000 -0.000000 
						CHANNELS 3 Zrotation Yrotation Xrotation
						JOINT LeftHandIndex1
						{
							OFFSET 0.715260 -0.000000 -0.000000 
							CHANNELS 3 Zrotation Yrotation Xrotation
							End Site
							{
								OFFSET 0.000000 0.000000 0.000000 
							}
						}
					}
				}
			}
			JOINT RightArm
			{
				OFFSET -3.136600 1.374050 -0.404650 
				CHANNELS 3 Zrotation Yrotation Xrotation
				JOINT RightForeArm
				{
					OFFSET -5.241900 -0.000000 -0.000000 
					CHANNELS 3 Zrotation Yrotation Xrotation
					JOINT RightHand
					{
						OFFSET -3.444170 -0.000000 -0.000000 
						CHANNELS 3 Zrotation Yrotation Xrotation
						JOINT RightHandIndex1
						{
							OFFSET -0.622530 -0.000000 -0.000000 
							CHANNELS 3 Zrotation Yrotation Xrotation
							End Site
							{
								OFFSET 0.000000 0.000000 0.000000 
							}
						}
					}
				}
			}
		}
	}
}
MOTION
Frames: 12
Frame Time: 0.041667
5.963367 18.007804 -25.285360 -71.776912 87.429059 -67.817505 -2.476990 -2.858452 5.805703 -1.160832 2.427814 3.359915 0.486059 1.234337 -5.273922 2.864000 10.471600 30.517800 14.019861 7.672274 12.142613 1.550657 -1.135376 0.531618 2.139586 -25.819586 -33.957935 -0.343400 -3.765600 10.418100 2.137392 -0.570855 -4.366646 0.179070 0.226487 5.110075 17.361328 -24.069681 11.464137 5.889000 -11.906800 4.780900 -81.926767 0.563014 29.023608 11.867751 -17.032265 -1.885828 0.538367 0.181417 -6.000541 -7.125000 0.000000 0.000000 80.995173 -7.479769 27.246765 -15.846331 20.098396 -4.303018 1.939599 1.811588 -1.211235 7.125000 0.000000 0.000000 
5.940406 17.998120 -25.284062 -117.081526 87.262725 -113.139499 -2.528695 -2.870302 5.386415 -1.127336 2.452181 3.926004 0.589225 0.719148 -4.066745 2.835900 10.424500 30.362700 13.747594 8.171100 12.482083 1.574969 -1.108344 0.154622 1.583506 -24.990785 -36.449503 -0.707900 -5.377300 14.988000 2.153228 -1.329520 -4.455954 0.356658 -0.305974 4.811101 17.957340 -23.825159 9.823259 6.250300 -11.851500 4.248700 -82.007100 0.523969 29.051790 11.890634 -17.052712 -1.887731 0.525738 0.187747 -6.495524 -7.125000 0.000000 0.000000 80.830430 -7.062348 24.982009 -16.084485 20.305137 -4.301059 1.484514 2.105989 -3.630141 7.125000 0.000000 0.000000 
5.919541 18.017787 -25.263696 -137.472378 87.043910 -134.123135 -2.574908 -2.667401 5.737132 -1.096346 2.460935 4.156642 0.659320 0.391383 -3.587623 2.796100 10.357300 30.141900 13.829022 7.458657 12.893520 1.588926 -1.101747 -0.056953 2.027320 -26.359571 -35.837496 -0.464000 -4.369200 12.117700 2.151335 -1.593416 -4.427892 0.641695 -0.524648 4.377349 18.663970 -23.512165 7.948526 6.679800 -11.777900 3.599200 -82.018395 0.595605 29.663899 12.041287 -17.221130 -1.918310 0.488462 0.207375 -7.795722 -7.125000 0.000000 0.000000 80.757631 -6.800536 23.490975 -16.059476 20.206280 -4.230498 1.761544 1.817142 -5.205283 7.125000 0.000000 0.000000 
5.916746 18.008502 -25.271683 -146.246887 86.824927 -142.620425 -2.510658 -2.776409 5.319785 -1.093629 2.495230 4.298657 0.687752 0.286229 -3.364228 2.758600 10.293600 29.932900 13.650662 7.378281 12.570001 1.588276 -1.210715 0.234465 1.794539 -25.704443 -36.291701 -0.526600 -4.650600 12.914600 2.151243 -1.784980 -4.506455 0.552274 -0.633435 4.340777 19.456010 -23.126232 5.994893 7.183100 -11.678400 2.930100 -82.084535 0.740548 30.093900 12.186850 -17.385777 -1.952707 0.460321 0.224145 -8.759058 -7.125000 0.000000 0.000000 80.654955 -6.676042 22.875492 -15.918923 20.008721 -4.123649 1.824184 1.680396 -5.642412 7.125000 0.000000 0.000000 
5.920739 18.023577 -25.258705 -129.699869 86.985722 -126.409698 -2.372489 -2.464961 5.727849 -1.082890 2.454122 4.104551 0.670177 0.340885 -3.493382 2.813900 10.387600 30.241100 13.980086 6.882172 12.694190 1.581098 -1.192163 0.168917 2.322089 -26.878742 -34.695791 -0.252500 -3.233400 8.929100 2.185186 -1.536769 -4.444949 0.647655 -0.458580 4.257178 20.355384 -22.755248 3.999679 7.729900 -11.590300 2.264700 -82.088909 0.838927 30.298047 12.249129 -17.466276 -1.970479 0.457639 0.226890 -9.163222 -7.125000 0.000000 0.000000 80.700763 -6.723095 23.067199 -15.881887 19.960532 -4.112615 1.895976 1.598976 -5.068889 7.125000 0.000000 0.000000 
5.924732 18.032562 -25.255909 -114.087299 86.894693 -110.802679 -2.020346 -2.509405 5.832849 -1.083678 2.460026 3.949684 0.632467 0.521849 -3.743239 2.862600 10.469200 30.509900 14.633857 7.780873 13.111919 1.599756 -1.125846 0.164636 1.995518 -26.275627 -35.848080 -0.404500 -4.083000 11.310200 2.249253 -1.306796 -4.430642 0.602047 -0.263704 4.231327 21.807158 -21.981661 0.158941 8.702100 -11.394300 0.889800 -82.101237 0.917854 30.498899 12.284177 -17.512794 -1.980381 0.463139 0.220677 -9.393834 -7.125000 0.000000 0.000000 80.733598 -6.685422 22.378256 -15.886518 19.955931 -4.120717 2.034576 1.405323 -4.801933 7.125000 0.000000 0.000000 
5.924333 18.033860 -25.253713 -111.226821 86.706535 -107.818992 -1.737363 -2.551500 5.714624 -1.076397 2.464719 3.941963 0.638781 0.508096 -3.713704 2.914700 10.555700 30.795600 15.068388 8.339180 13.201381 1.612011 -1.099648 0.142705 1.751817 -25.829948 -36.691062 -0.585200 -4.898000 13.617800 2.305280 -1.266845 -4.450536 0.601911 -0.223409 4.228338 21.658706 -22.011047 0.233007 8.632500 -11.400000 0.900000 -82.153903 0.938979 30.603240 12.298024 -17.531093 -1.984848 0.465064 0.220764 -9.407703 -7.125000 0.000000 0.000000 80.708121 -6.519924 21.054639 -15.899860 19.989742 -4.187232 2.164262 1.280514 -5.183535 7.125000 0.000000 0.000000 
5.921737 18.033161 -25.249520 -113.217551 86.655927 -109.718764 -1.672088 -2.519578 5.575244 -1.070398 2.470484 3.985621 0.645516 0.474238 -3.514132 2.937300 10.592900 30.918800 15.155394 8.740148 13.272702 1.611767 -1.086116 0.127653 1.418555 -25.024100 -37.516479 -0.858900 -5.909900 16.523300 2.313724 -1.272752 -4.460679 0.645478 -0.232301 4.221437 21.928310 -22.106813 0.212346 8.730400 -11.460000 0.948300 -82.153999 0.894545 30.702019 12.296261 -17.528890 -1.984082 0.463830 0.221886 -9.266334 -7.125000 0.000000 0.000000 80.723980 -6.552561 20.901787 -15.856439 19.996720 -4.272130 2.247846 1.316097 -5.118326 7.125000 0.000000 0.000000 
5.919741 18.032762 -25.245726 -114.168113 86.608705 -110.624284 -1.560896 -2.289804 5.390416 -1.059229 2.484722 4.052458 0.640262 0.487735 -3.297125 2.769100 10.311600 29.991600 15.205951 8.705507 13.190845 1.616139 -1.106310 0.162444 1.478815 -25.220993 -37.450258 -0.791500 -5.679200 15.856300 2.332274 -1.303872 -4.469397 0.680623 -0.253576 4.206939 21.659285 -22.033801 0.390981 8.601900 -11.400300 0.984500 -82.163889 0.893063 30.754410 12.316394 -17.560841 -1.991012 0.468498 0.217809 -9.154175 -7.125000 0.000000 0.000000 80.595608 -6.703718 21.790662 -15.835041 20.018972 -4.324240 2.282734 1.368325 -4.987394 7.125000 0.000000 0.000000 
5.919042 18.032762 -25.244029 -115.262334 86.574786 -111.701248 -1.496110 -2.066582 5.257914 -1.043702 2.488958 4.093575 0.680326 0.317350 -3.078715 2.795500 10.356500 30.139000 15.234886 8.598687 13.111109 1.622821 -1.124067 0.178926 1.635555 -25.695280 -37.221142 -0.648800 -5.152700 14.344500 2.335178 -1.324439 -4.474077 0.693512 -0.269430 4.189085 21.715995 -22.029145 0.428325 8.612300 -11.398100 1.005300 -82.188404 0.900784 30.728977 12.340772 -17.600475 -2.000736 0.478489 0.211957 -9.234021 -7.125000 0.000000 0.000000 80.598183 -7.039593 24.022141 -15.708719 19.903266 -4.296619 2.291281 1.401243 -3.188612 7.125000 0.000000 0.000000 
5.918842 18.032362 -25.244029 -117.945718 86.560421 -114.379912 -1.549387 -2.044103 5.238841 -1.040745 2.474104 4.088370 0.699714 0.229692 -2.976801 2.930200 10.581300 30.880300 15.182723 8.491564 13.074758 1.625828 -1.124592 0.143827 1.739093 -26.012198 -37.085730 -0.569200 -4.831700 13.429300 2.290444 -1.326142 -4.471243 0.617335 -0.284594 4.176033 21.772256 -22.090658 0.510538 8.600900 -11.428700 1.037800 -82.148527 0.902594 30.800263 12.372632 -17.643163 -2.010189 0.482470 0.206730 -9.404687 -7.125000 0.000000 0.000000 80.770968 -7.213391 25.206873 -15.677246 19.878642 -4.253290 1.757413 2.001922 -2.014102 7.125000 0.000000 0.000000 
5.918143 18.031863 -25.243231 -120.522074 86.536558 -116.955809 -1.582626 -2.025424 5.213744 -1.045597 2.465123 4.093954 0.660447 0.382706 -2.943338 2.770700 10.314300 30.000500 15.150723 8.428983 13.066482 1.628064 -1.132285 0.137371 1.771333 -26.133786 -37.085916 -0.552600 -4.762000 13.230800 2.254967 -1.334778 -4.471605 0.552188 -0.301370 4.157850 21.832149 -22.140053 0.544731 8.604300 -11.455700 1.054000 -82.088742 0.945162 30.964172 12.429212 -17.717333 -2.026632 0.483144 0.205007 -9.506332 -7.125000 0.000000 0.000000 80.773958 -7.177656 25.421061 -15.657869 19.873839 -4.272772 1.761213 2.028633 -2.344687 7.125000 0.000000 0.000000 
